<?xml version="1.0" encoding="UTF-8" standalone="no"?>
<!-- Generator: Adobe Illustrator 21.0.0, SVG Export Plug-In . SVG Version: 6.00 Build 0)  -->

<svg
   xmlns:dc="http://purl.org/dc/elements/1.1/"
   xmlns:cc="http://creativecommons.org/ns#"
   xmlns:rdf="http://www.w3.org/1999/02/22-rdf-syntax-ns#"
   xmlns:svg="http://www.w3.org/2000/svg"
   xmlns="http://www.w3.org/2000/svg"
   xmlns:sodipodi="http://sodipodi.sourceforge.net/DTD/sodipodi-0.dtd"
   xmlns:inkscape="http://www.inkscape.org/namespaces/inkscape"
   version="1.1"
   id="PodTube_Icon"
   x="0px"
   y="0px"
   viewBox="0 0 1024 1024"
   enable-background="new 0 0 1024 721"
   xml:space="preserve"
   sodipodi:docname="podtube_favicon.svg"
   inkscape:version="0.92.2 (5c3e80d, 2017-08-06)"
   width="1024"
   height="1024"><metadata
     id="metadata26"><rdf:RDF><cc:Work
         rdf:about=""><dc:format>image/svg+xml</dc:format><dc:type
           rdf:resource="http://purl.org/dc/dcmitype/StillImage" /><dc:title></dc:title></cc:Work></rdf:RDF></metadata><defs
     id="defs24" /><sodipodi:namedview
     pagecolor="#ffffff"
     bordercolor="#666666"
     borderopacity="1"
     objecttolerance="10"
     gridtolerance="10"
     guidetolerance="10"
     inkscape:pageopacity="0"
     inkscape:pageshadow="2"
     inkscape:window-width="1920"
     inkscape:window-height="1017"
     id="namedview22"
     showgrid="false"
     inkscape:zoom="0.28027344"
     inkscape:cx="442.23045"
     inkscape:cy="777.36595"
     inkscape:window-x="1072"
     inkscape:window-y="321"
     inkscape:window-maximized="1"
     inkscape:current-layer="PodTube_Icon" /><g
     id="Background"
     transform="translate(0,157)"><g
       id="g9"><linearGradient
         id="SVGID_1_"
         gradientUnits="userSpaceOnUse"
         x1="512.5"
         y1="719.70001"
         x2="512.5"
         y2="1.2"
         gradientTransform="matrix(1,0,0,-1,0,721)"><stop
           offset="0"
           style="stop-color:#E52D27"
           id="stop2" /><stop
           offset="1"
           style="stop-color:#BF171D"
           id="stop4" /></linearGradient><path
         d="m 1013,156.3 c 0,0 -10,-70.4 -40.6,-101.4 C 933.6,14.2 890,14 870.1,11.6 727.1,1.3 512.7,1.3 512.7,1.3 h -0.4 c 0,0 -214.4,0 -357.4,10.3 C 135,14 91.4,14.2 52.6,54.9 22,85.9 12,156.3 12,156.3 c 0,0 -10.2,82.6 -10.2,165.3 v 77.5 c 0,82.7 10.2,165.3 10.2,165.3 0,0 10,70.4 40.6,101.4 38.9,40.7 89.9,39.4 112.6,43.7 81.7,7.8 347.3,10.3 347.3,10.3 0,0 214.6,-0.3 357.6,-10.7 20,-2.4 63.5,-2.6 102.3,-43.3 30.6,-31 40.6,-101.4 40.6,-101.4 0,0 10.2,-82.7 10.2,-165.3 v -77.5 c 0,-82.7 -10.2,-165.3 -10.2,-165.3 z"
         id="path7"
         inkscape:connector-curvature="0"
         style="fill:url(#SVGID_1_)" /></g></g><g
     id="Foreground"
     transform="translate(250,263)"
     style="fill:#ffffff;fill-opacity:1;stroke:none;stroke-opacity:1"><g
       id="g18"
       style="fill:#ffffff;fill-opacity:1;stroke:none;stroke-opacity:1"><path
         d="m 385.07637,237.5227 c 0,-69.15155 -56.26366,-125.41521 -125.4152,-125.41521 -69.15154,0 -125.4152,56.26366 -125.4152,125.41521 0,44.33672 23.1293,83.37031 57.95429,105.67743 -34.82499,22.30711 -57.95429,61.34583 -57.95429,105.67742 v 105.6826 c 0,10.89918 8.83857,19.73262 19.73262,19.73262 h 211.36516 c 10.89405,0 19.73262,-8.83344 19.73262,-19.73262 v -105.6826 c 0,-44.33159 -23.1293,-83.37031 -57.95429,-105.67742 34.82499,-22.30712 57.95429,-61.34071 57.95429,-105.67743 z m 0,0"
         id="path12"
         inkscape:connector-curvature="0"
         style="fill:#ffffff;fill-opacity:1;stroke:none;stroke-width:1.31550813;stroke-opacity:1" /></g></g><g
     id="Person"
     transform="matrix(1.3155081,0,0,1.3155081,172.89109,204.53337)"
     style="stroke-width:0.2;stroke-miterlimit:4;stroke-dasharray:none"><g
       id="g15"
       style="stroke-width:0.2;stroke-miterlimit:4;stroke-dasharray:none"><path
         d="M 437.01953,74.980469 C 388.66797,26.628906 324.38281,0 256,0 187.61719,0 123.33203,26.628906 74.980469,74.980469 26.628906,123.33203 0,187.62109 0,256 0,349.47656 51.074219,434.52734 130.66406,479.27344 L 129.4026,420.76457 C 66.109272,353.54158 54.464982,331.96844 52.706258,255.36927 49.26566,105.51803 170.15615,50.811878 255.58571,50.974801 c 88.74031,0.169237 202.08421,59.597899 206.23095,203.763739 2.2756,79.1138 -29.38768,107.11074 -80.48072,159.08801 v 65.44689 C 460.92578,434.52734 512,349.47656 512,256 512,187.62109 485.37109,123.33203 437.01953,74.980469 Z"
         id="path16"
         inkscape:connector-curvature="0"
         style="fill:#ffffff;fill-opacity:1;stroke:none;stroke-width:0.2;stroke-miterlimit:4;stroke-dasharray:none;stroke-opacity:1"
         sodipodi:nodetypes="ssssccsssccss" /></g></g></svg>