<?xml version="1.0" encoding="UTF-8" standalone="no"?>
<!-- Generator: Adobe Illustrator 21.0.0, SVG Export Plug-In . SVG Version: 6.00 Build 0)  -->

<svg
   xmlns:dc="http://purl.org/dc/elements/1.1/"
   xmlns:cc="http://creativecommons.org/ns#"
   xmlns:rdf="http://www.w3.org/1999/02/22-rdf-syntax-ns#"
   xmlns:svg="http://www.w3.org/2000/svg"
   xmlns="http://www.w3.org/2000/svg"
   xmlns:sodipodi="http://sodipodi.sourceforge.net/DTD/sodipodi-0.dtd"
   xmlns:inkscape="http://www.inkscape.org/namespaces/inkscape"
   version="1.1"
   id="PodTube_Icon"
   x="0px"
   y="0px"
   viewBox="0 0 1024 721"
   enable-background="new 0 0 1024 721"
   xml:space="preserve"
   sodipodi:docname="youtube.new.svg"
   inkscape:version="0.92.2 (5c3e80d, 2017-08-06)"><metadata
     id="metadata26"><rdf:RDF><cc:Work
         rdf:about=""><dc:format>image/svg+xml</dc:format><dc:type
           rdf:resource="http://purl.org/dc/dcmitype/StillImage" /></cc:Work></rdf:RDF></metadata><defs
     id="defs24" /><sodipodi:namedview
     pagecolor="#ffffff"
     bordercolor="#666666"
     borderopacity="1"
     objecttolerance="10"
     gridtolerance="10"
     guidetolerance="10"
     inkscape:pageopacity="0"
     inkscape:pageshadow="2"
     inkscape:window-width="1920"
     inkscape:window-height="1017"
     id="namedview22"
     showgrid="false"
     inkscape:zoom="0.28027344"
     inkscape:cx="512"
     inkscape:cy="360.5"
     inkscape:window-x="1072"
     inkscape:window-y="321"
     inkscape:window-maximized="1"
     inkscape:current-layer="PodTube_Icon" /><g
     id="Background"><g
       id="g9"><linearGradient
         id="SVGID_1_"
         gradientUnits="userSpaceOnUse"
         x1="512.5"
         y1="719.7"
         x2="512.5"
         y2="1.2"
         gradientTransform="matrix(1 0 0 -1 0 721)"><stop
           offset="0"
           style="stop-color:#E52D27"
           id="stop2" /><stop
           offset="1"
           style="stop-color:#BF171D"
           id="stop4" /></linearGradient><path
         fill="url(#SVGID_1_)"
         d="M1013,156.3c0,0-10-70.4-40.6-101.4C933.6,14.2,890,14,870.1,11.6C727.1,1.3,512.7,1.3,512.7,1.3 h-0.4c0,0-214.4,0-357.4,10.3C135,14,91.4,14.2,52.6,54.9C22,85.9,12,156.3,12,156.3S1.8,238.9,1.8,321.6v77.5 C1.8,481.8,12,564.4,12,564.4s10,70.4,40.6,101.4c38.9,40.7,89.9,39.4,112.6,43.7c81.7,7.8,347.3,10.3,347.3,10.3 s214.6-0.3,357.6-10.7c20-2.4,63.5-2.6,102.3-43.3c30.6-31,40.6-101.4,40.6-101.4s10.2-82.7,10.2-165.3v-77.5 C1023.2,238.9,1013,156.3,1013,156.3z"
         id="path7" /></g></g><g
     id="Foreground"
     transform="translate(250,106)"
     style="fill:#ffffff;fill-opacity:1;stroke:none;stroke-opacity:1"><g
       id="g18"
       style="fill:#ffffff;fill-opacity:1;stroke:none;stroke-opacity:1"><path
         d="m 351.33594,256 c 0,-52.56641 -42.76953,-95.33594 -95.33594,-95.33594 -52.56641,0 -95.33594,42.76953 -95.33594,95.33594 0,33.70312 17.58203,63.375 44.05469,80.33203 -26.47266,16.95703 -44.05469,46.63281 -44.05469,80.33203 V 497 c 0,8.28516 6.71875,15 15,15 h 160.67188 c 8.28125,0 15,-6.71484 15,-15 v -80.33594 c 0,-33.69922 -17.58203,-63.375 -44.05469,-80.33203 C 333.75391,319.375 351.33594,289.70312 351.33594,256 Z m 0,0"
         id="path12"
         inkscape:connector-curvature="0"
         style="fill:#ffffff;fill-opacity:1;stroke:none;stroke-opacity:1" /><path
         d="M 256,80.332031 C 159.13672,80.332031 80.335938,159.13672 80.335938,256 c 0,48.80078 20.304692,94.70703 54.828122,127.47266 2.66797,-9.71094 6.48828,-19.10157 11.42969,-27.91407 0.38672,-0.69531 0.78906,-1.38281 1.1875,-2.07031 -23.73047,-26.375 -37.44531,-60.95703 -37.44531,-97.48828 0,-80.32031 65.34375,-145.66406 145.66406,-145.66406 80.32031,0 145.66406,65.34375 145.66406,145.66406 0.004,36.53125 -13.71484,71.11719 -37.44531,97.48828 0.39844,0.6875 0.80078,1.375 1.1875,2.07031 4.94141,8.8125 8.76172,18.20313 11.42969,27.91407 C 411.35937,350.70703 431.66797,304.80078 431.66406,256 431.66406,159.13672 352.86328,80.332031 256,80.332031 Z m 0,0"
         id="path14"
         inkscape:connector-curvature="0"
         style="fill:#ffffff;fill-opacity:1;stroke:none;stroke-opacity:1" /><path
         d="M 437.01953,74.980469 C 388.66797,26.628906 324.38281,0 256,0 187.61719,0 123.33203,26.628906 74.980469,74.980469 26.628906,123.33203 0,187.62109 0,256 0,349.47656 51.074219,434.52734 130.66406,479.27344 V 444.10156 C 68.867188,402.82812 30,332.62109 30,256 30,131.38281 131.38281,30 256,30 c 124.61719,0 226,101.38281 226,226 0,76.62109 -38.86719,146.82812 -100.66406,188.10156 v 35.17188 C 460.92578,434.52734 512,349.47656 512,256 512,187.62109 485.37109,123.33203 437.01953,74.980469 Z m 0,0"
         id="path16"
         inkscape:connector-curvature="0"
         style="fill:#ffffff;fill-opacity:1;stroke:none;stroke-opacity:1" /></g></g></svg>